# xmcd
#
# Track frame offsets: 
#        150
#        16653
#        26225
#        38603
#        48506
#        59230
#        67633
#        75505
#        82634
#        93961
#
# Disc length: 1373 seconds
#
# Revision: 0
# Processed by: cddbd v1.5.2PL0 Copyright (c) Steve Scherf et al.
# Submitted via: ExactAudioCopyFreeDBPlugin 1.0
#
DISCID=68055b0a
DTITLE=Various Artist - Rockin' Country - Jammin' Guitars and Country F
DTITLE=avorites
DYEAR=1900
DGENRE=Country
TTITLE0=Orange Blossom Special
TTITLE1=Guitar Boogie
TTITLE2=Tequilla
TTITLE3=Oklahoma Hills
TTITLE4=12th Street Rag
TTITLE5=Snowbird
TTITLE6=Yakety Yak
TTITLE7=Just Pickin'
TTITLE8=Singin' Low
TTITLE9=Wreck Of The Old 97
EXTD=
EXTT0=
EXTT1=
EXTT2=
EXTT3=
EXTT4=
EXTT5=
EXTT6=
EXTT7=
EXTT8=
EXTT9=
PLAYORDER=
